<?xml version="1.0" encoding="UTF-8"?>
<svg width="1200pt" height="1200pt" version="1.1" viewBox="0 0 1200 1200" xmlns="http://www.w3.org/2000/svg">
 <g fill="#f2ccb1">
  <path d="m219.07 545.51c-80.676-205.55 20.473-437.51 225.84-518.11 161.23-63.277 355.74-6.2266 448.87 109.6l-670.98 417.25c-1.2266-2.9375-2.5586-5.7695-3.7344-8.7344z"/>
  <path d="m999.85 410.98c2.0898 6.6953 4.0195 13.402 5.5781 20.16 7.8477 33.348 16.477 120.45 16.477 120.45l83.52 210.29c1.6094 3.793 2.4102 8.0273 2.4102 12.516 0 17.746-14.531 32.219-32.328 32.219h-53.578v111.73c0 87.098-70.559 157.66-157.59 157.66h-62.629v122.35h-426.44v-339.27c-90.695-71.328-149.58-181.21-152.47-304.84z"/>
  <path d="m1074.7 220.2c-1.5703-0.12109-38.594-2.7344-92.531 7.5-54.012 10.262-105.46 30.168-150.97 57.898l-49.141-55.488-62.926 188.56 194.72-39.758-42.949-48.492c45.66-26.09 90.145-38.93 122.23-45.012 45.359-8.6289 76.859-6.5898 77.16-6.5625l23.305 1.5977 1.8828-23.27 2.6992-35.207z"/>
 </g>
</svg>
